<?xml version="1.0" standalone="no"?>
<!DOCTYPE svg PUBLIC "-//W3C//DTD SVG 20010904//EN"
 "http://www.w3.org/TR/2001/REC-SVG-20010904/DTD/svg10.dtd">
<svg version="1.0" xmlns="http://www.w3.org/2000/svg"
 width="512.000000pt" height="512.000000pt" viewBox="0 0 512.000000 512.000000"
 preserveAspectRatio="xMidYMid meet">
<metadata>
Created by potrace 1.14, written by Peter Selinger 2001-2017
</metadata>
<g transform="translate(0.000000,512.000000) scale(0.100000,-0.100000)"
fill="#000000" stroke="none">
<path d="M2465 4625 c-55 -12 -140 -32 -190 -44 -49 -11 -102 -23 -117 -25
-15 -3 -44 -9 -65 -15 -21 -6 -49 -12 -63 -15 -14 -2 -88 -19 -165 -36 -77
-17 -148 -33 -158 -35 -10 -2 -26 -6 -35 -9 -9 -3 -28 -7 -42 -10 -14 -2 -68
-14 -120 -26 -52 -12 -113 -26 -135 -31 -22 -5 -49 -10 -60 -13 -11 -2 -103
-23 -205 -46 -102 -22 -212 -48 -244 -56 -32 -9 -71 -17 -86 -19 -14 -2 -44
-8 -66 -14 -21 -6 -93 -22 -159 -36 -66 -14 -133 -29 -150 -34 -34 -10 -98
-22 -105 -19 -3 1 -14 -3 -25 -9 -20 -11 -20 -21 -20 -1410 l1 -1398 204 -68
c113 -38 210 -69 215 -70 18 -5 669 -218 697 -229 15 -5 31 -10 35 -10 4 0 37
-11 73 -23 140 -50 590 -195 605 -195 8 0 15 -5 15 -12 0 -6 2 -9 6 -6 5 6 68
-11 114 -30 22 -9 337 -112 365 -119 6 -1 69 -22 140 -46 124 -42 132 -43 165
-29 35 14 106 47 268 123 46 21 85 39 87 39 1 0 41 18 87 39 45 21 130 60 188
86 58 26 137 62 175 80 121 56 184 85 405 185 196 89 276 126 426 196 28 13
56 24 62 24 6 0 12 4 14 8 2 5 39 23 83 41 134 56 172 78 176 103 3 13 4 654
4 1426 -1 1178 -3 1404 -14 1412 -8 4 -37 11 -65 15 -28 4 -58 8 -66 10 -20 4
-197 35 -235 41 -16 2 -56 9 -88 15 -32 5 -74 12 -95 15 -20 2 -44 6 -52 9 -8
2 -28 6 -45 9 -16 3 -111 19 -210 36 -99 17 -191 33 -205 35 -14 3 -36 7 -50
10 -14 3 -41 7 -60 9 -20 2 -49 6 -65 9 -17 4 -48 9 -69 12 -22 3 -42 8 -44
10 -3 3 -12 -1 -20 -8 -9 -7 -13 -7 -9 -1 6 10 -16 15 -163 39 -14 2 -26 4
-27 6 -9 6 -30 4 -42 -5 -11 -8 -13 -8 -8 1 7 10 -53 25 -160 38 -18 2 -36 6
-40 8 -4 3 -28 8 -53 11 -25 3 -55 8 -66 10 -12 2 -38 7 -59 10 -20 4 -40 8
-44 10 -3 2 -33 7 -66 11 -32 3 -62 8 -65 10 -3 1 -27 6 -54 9 -27 4 -52 8
-55 10 -3 2 -51 -7 -106 -19z"/>
</g>
</svg>
